<?xml version="1.0" encoding="UTF-8"?>
<svg width="600" height="330" version="1.1" xmlns="http://www.w3.org/2000/svg">
 <g fill="#000" stroke="#000" stroke-linejoin="round">
  <path d="m140.6 242.46 8.7986-41.392 31.448 28.315z"/>
  <path d="m132.2 93.945 17.211 38.66-42.086-4.4234z"/>
  <path d="m226.3 209.14-36.648-21.16 36.648-21.159z"/>
  <path d="m221.1 117.36-31.449 28.315-8.7983-41.393z"/>
  <path d="m82.4 171.26 42.086-4.422-17.212 38.659z"/>
  <path d="m144.2 292.86 36.649 21.158-1e-4 -42.318z"/>
  <path d="m35.6 190.24-8.7965 41.392 40.245-13.077z"/>
  <path d="m99.7 55.275-42.085 4.4246 24.873 34.235z"/>
  <path d="m247.8 74.465-17.213-38.658-24.873 34.235z"/>
  <path d="m308.6 184.34-42.086-4.422 17.212 38.659z"/>
  <path d="m459.5 87.535-8.7986 41.392-31.448-28.315z"/>
  <path d="m467.8 236.06-17.211-38.66 42.086 4.4234z"/>
  <path d="m373.7 120.86 36.648 21.16-36.648 21.159z"/>
  <path d="m378.9 212.66 31.449-28.315 8.7983 41.393z"/>
  <path d="m517.6 158.74-42.086 4.422 17.212-38.659z"/>
  <path d="m455.9 37.145-36.649-21.158 1e-4 42.318z"/>
  <path d="m564.4 139.76 8.7965-41.392-40.245 13.077z"/>
  <path d="m500.4 274.72 42.085-4.4246-24.873-34.235z"/>
  <path d="m352.2 255.54 17.213 38.658 24.873-34.235z"/>
  <path d="m291.4 145.66 42.086 4.422-17.212-38.659z"/>
 </g>
 <g fill="#ff8000" stroke="#000" stroke-linejoin="round">
  <path d="m149.4 132.6-24.873 34.235 24.874 34.236 40.245-13.077v-42.318z"/>
  <path d="m180.8 229.38-5e-4 42.316 40.246 13.078 24.873-34.234-24.874-34.236z"/>
  <path d="m450.6 197.4 24.873-34.235-24.874-34.236-40.245 13.077v42.318z"/>
  <path d="m419.2 100.62 5e-4 -42.316-40.246-13.078-24.873 34.234 24.874 34.236z"/>
  <path d="m67 260.88 2e-4 -42.317 40.248-13.078 24.873 34.235-24.875 34.236z"/>
  <path d="m42.1 149.32 2e-4 -42.317 40.248-13.078 24.873 34.235-24.875 34.236z"/>
  <path d="m140.6 91.195 2e-4 -42.317 40.248-13.078 24.873 34.235-24.875 34.236z"/>
  <path d="m226.3 166.84 40.246 13.077 24.875-34.236-24.873-34.235-40.248 13.078z"/>
  <path d="m533 69.125-2e-4 42.317-40.248 13.078-24.873-34.235 24.875-34.236z"/>
  <path d="m557.9 180.68-2e-4 42.317-40.248 13.078-24.873-34.235 24.875-34.236z"/>
  <path d="m459.5 238.8-2e-4 42.317-40.248 13.078-24.873-34.235 24.875-34.236z"/>
  <path d="m373.7 163.18-40.246-13.077-24.875 34.236 24.873 34.235 40.248-13.078z"/>
 </g>
 <g fill="#007fff" stroke="#000" stroke-linejoin="round">
  <path d="m180.8 229.38 8.7986-41.392 31.448 28.315z"/>
  <path d="m180.9 229.38-31.447-28.316 40.245-13.077z"/>
  <path d="m107.4 128.18 17.211 38.66-42.086-4.4234z"/>
  <path d="m107.3 128.16 42.085 4.4246-24.873 34.235z"/>
  <path d="m226.3 166.82-36.648-21.16 36.648-21.159z"/>
  <path d="m226.3 166.82-36.649 21.158v-42.318z"/>
  <path d="m180.8 104.28-31.449 28.315-8.7983-41.393z"/>
  <path d="m180.8 104.28 8.7967 41.392-40.245-13.077z"/>
  <path d="m107.3 205.5 42.086-4.422-17.212 38.659z"/>
  <path d="m107.3 205.48 17.213-38.658 24.873 34.235z"/>
  <path d="m263.2 289.2-42.085-4.4246 24.873-34.235z"/>
  <path d="m189.7 313.1-8.7965-41.392 40.245 13.077z"/>
  <path d="m144.2 250.54 36.649-21.158-1e-4 42.318z"/>
  <path d="m144.2 292.86 36.648-21.16-36.648-21.159z"/>
  <path d="m30.4 239.72 36.649 21.158-1e-4 -42.318z"/>
  <path d="m75.8 302.28 31.447-28.316-40.245-13.077z"/>
  <path d="m35.6 190.24 31.449 28.315 8.7983-41.393z"/>
  <path d="m75.9 177.16-8.7965 41.392 40.245-13.077z"/>
  <path d="m99.6 55.285-17.211 38.66 42.086-4.4234z"/>
  <path d="m124.5 89.505-42.085 4.4246 24.873 34.235z"/>
  <path d="m5.5 128.18 36.649 21.158-1e-4 -42.318z"/>
  <path d="m51 65.615-8.7965 41.392 40.245-13.077z"/>
  <path d="m222.9 31.385-42.085 4.4246 24.873 34.235z"/>
  <path d="m149.4 7.485-8.7965 41.392 40.245-13.077z"/>
  <path d="m247.8 74.475-42.086-4.422 17.212 38.659z"/>
  <path d="m222.9 108.7-17.213-38.658-24.873 34.235z"/>
  <path d="m235.1 208.22-8.7967-41.392 40.245 13.077z"/>
  <path d="m275.4 221.3-8.7986-41.392-31.448 28.315z"/>
  <path d="m308.6 107.02-17.213 38.658-24.873-34.235z"/>
  <path d="m308.6 184.34-42.085-4.4246 24.873-34.235z"/>
  <path d="m419.2 100.62-8.7986 41.392-31.448-28.315z"/>
  <path d="m419.2 100.62 31.447 28.316-40.245 13.077z"/>
  <path d="m492.7 201.82-17.211-38.66 42.086 4.4234z"/>
  <path d="m492.7 201.84-42.085-4.4246 24.873-34.235z"/>
  <path d="m373.7 163.18 36.648 21.16-36.648 21.159z"/>
  <path d="m373.7 163.18 36.649-21.158v42.318z"/>
  <path d="m419.2 225.72 31.449-28.315 8.7983 41.393z"/>
  <path d="m419.2 225.72-8.7967-41.392 40.245 13.077z"/>
  <path d="m492.7 124.5-42.086 4.422 17.212-38.659z"/>
  <path d="m492.7 124.52-17.213 38.658-24.873-34.235z"/>
  <path d="m336.8 40.795 42.085 4.4246-24.873 34.235z"/>
  <path d="m410.4 16.905 8.7965 41.392-40.245-13.077z"/>
  <path d="m455.9 79.465-36.649 21.158 1e-4 -42.318z"/>
  <path d="m455.8 37.145-36.648 21.16 36.648 21.159z"/>
  <path d="m569.6 90.275-36.649-21.158 1e-4 42.318z"/>
  <path d="m524.2 27.725-31.447 28.316 40.245 13.077z"/>
  <path d="m564.4 139.76-31.449-28.315-8.7983 41.393z"/>
  <path d="m524.2 152.84 8.7965-41.392-40.245 13.077z"/>
  <path d="m500.4 274.72 17.211-38.66-42.086 4.4234z"/>
  <path d="m475.5 240.5 42.085-4.4246-24.873-34.235z"/>
  <path d="m594.5 201.84-36.649-21.158 1e-4 42.318z"/>
  <path d="m549 264.38 8.7965-41.392-40.245 13.077z"/>
  <path d="m377.1 298.62 42.085-4.4246-24.873-34.235z"/>
  <path d="m450.6 322.52 8.7965-41.392-40.245 13.077z"/>
  <path d="m352.2 255.52 42.086 4.422-17.212-38.659z"/>
  <path d="m377.1 221.3 17.213 38.658 24.873-34.235z"/>
  <path d="m364.9 121.78 8.7967 41.392-40.245-13.077z"/>
  <path d="m324.7 108.7 8.7986 41.392 31.448-28.315z"/>
  <path d="m291.4 222.98 17.213-38.658 24.873 34.235z"/>
  <path d="m291.4 145.66 42.085 4.4246-24.873 34.235z"/>
 </g>
</svg>
